0.06m3min_grf.mot
version=1
nRows=25
nColumns 19
inDegrees=yes
endheader
time	1_ground_force_vx	1_ground_force_vy	1_ground_force_vz	1_ground_force_px	1_ground_force_py	1_ground_force_pz	1_ground_torque_x	1_ground_torque_y	1_ground_torque_z	2_ground_force_vx	2_ground_force_vy	2_ground_force_vz	2_ground_force_px	2_ground_force_py	2_ground_force_pz	2_ground_torque_x	2_ground_torque_y	2_ground_torque_z
            0.005000	            0.414365	            5.223066	            1.121934	           -0.186672	            0.006131	           -0.381813	           -0.014498	           -0.182748	           -0.039255	            0.243283	            9.245755	          -10.432234	           -0.084097	            0.005841	           -0.602616	            0.004534	            0.172316	           -0.194429
            0.005500	            0.322077	            5.404297	            0.893655	           -0.166042	            0.006092	           -0.371929	           -0.011343	           -0.190332	           -0.031473	            0.433238	            8.510675	          -10.669582	           -0.082826	            0.005757	           -0.578009	            0.005439	            0.106836	           -0.133937
            0.006000	            0.916702	            5.226505	            0.341132	           -0.174850	            0.006064	           -0.365756	           -0.009730	           -0.055476	           -0.003621	            0.196412	            9.245753	          -10.479142	           -0.076857	            0.005867	           -0.602783	            0.003129	            0.147283	           -0.166930
            0.006500	            1.190996	            5.047669	            0.018685	           -0.178631	            0.006182	           -0.393554	            0.014923	            0.063247	            0.000234	            0.148172	            9.614382	          -10.618592	           -0.087341	            0.005868	           -0.613542	            0.003565	            0.231294	           -0.255453
            0.007000	            1.236156	            5.048858	           -0.256564	           -0.163650	            0.006166	           -0.389129	           -0.007119	           -0.029076	            0.001478	            0.288803	            9.614220	          -10.430939	           -0.084336	            0.005878	           -0.613451	            0.004745	            0.157963	           -0.171382
            0.007500	            1.008145	            4.686316	            0.201018	           -0.233013	            0.005581	           -0.255695	            0.684402	           -0.268342	            0.246767	            0.104748	            8.692635	          -10.387217	           -0.069357	            0.005843	           -0.588248	            0.001473	            0.122221	           -0.146047
            0.008000	            0.642603	            5.585214	            0.756064	           -0.175483	            0.006106	           -0.375664	           -0.028744	           -0.249830	           -0.033819	            0.522347	            9.799549	          -10.524238	           -0.093914	            0.005843	           -0.613112	            0.010824	            0.203064	           -0.218081
            0.008500	            0.413730	            5.584580	            0.894200	           -0.169338	            0.006052	           -0.362733	           -0.018594	           -0.250983	           -0.040187	            0.572541	            8.878809	          -10.480615	           -0.082638	            0.005819	           -0.594947	            0.006299	            0.097684	           -0.115307
            0.009000	            0.505613	            4.503004	            0.889335	           -0.233013	            0.005581	           -0.255695	            0.673951	           -0.250145	            0.244173	            0.665535	            9.063631	          -10.573854	           -0.089751	            0.005816	           -0.601507	            0.009692	            0.131986	           -0.153978
            0.009500	            0.734274	            5.044631	            0.707661	           -0.169657	            0.006164	           -0.388777	           -0.008955	           -0.061520	           -0.008630	            0.195727	            9.430069	          -10.525413	           -0.086473	            0.005848	           -0.607188	            0.004057	            0.195468	           -0.218172
            0.010000	            1.375360	            5.226201	            0.431706	           -0.169034	            0.006088	           -0.371091	            0.014864	            0.056481	            0.004666	            0.195768	            9.429734	          -10.431557	           -0.084389	            0.005841	           -0.603137	            0.004460	            0.214835	           -0.237660
            0.010500	            1.282976	            4.686762	            0.108623	           -0.233013	            0.005581	           -0.255695	            0.613236	           -0.175799	            0.259069	            0.337544	            9.062781	          -10.667571	           -0.078972	            0.005857	           -0.602108	            0.004373	            0.117399	           -0.138188
            0.011000	            1.099667	            5.587662	            0.204655	           -0.200495	            0.006004	           -0.352907	           -0.028578	           -0.145211	           -0.005319	            0.290736	            9.062278	          -10.573695	           -0.074763	            0.005851	           -0.596056	            0.002773	            0.086439	           -0.100856
            0.011500	            0.870548	            6.308287	            0.300027	           -0.201675	            0.006011	           -0.354486	           -0.037875	           -0.274453	           -0.013053	            0.200379	            8.141030	          -10.530012	           -0.070374	            0.005804	           -0.578576	            0.000915	            0.037194	           -0.048109
            0.012000	            0.413113	            5.225228	            0.617519	           -0.192658	            0.006058	           -0.365022	           -0.017877	           -0.226112	           -0.026722	            0.616109	            9.799386	          -10.383494	           -0.088996	            0.005860	           -0.612952	            0.012434	            0.197761	           -0.209549
            0.012500	            0.550591	            6.126387	            0.666898	           -0.187652	            0.006048	           -0.362642	           -0.010323	           -0.114867	           -0.012504	            0.476765	            9.431586	          -10.666317	           -0.087012	            0.005867	           -0.612898	            0.007008	            0.138642	           -0.156792
            0.013000	            0.643124	            5.223896	            0.937941	           -0.180876	            0.006097	           -0.373720	           -0.001778	           -0.014445	           -0.002594	            0.620761	            8.510347	          -10.388093	           -0.084524	            0.005697	           -0.562708	            0.003773	            0.051725	           -0.063138
            0.013500	            1.146031	            5.226353	            0.386419	           -0.195266	            0.006127	           -0.381362	            0.000326	            0.001489	            0.000110	            0.569779	            9.616240	          -10.712627	           -0.089671	            0.005857	           -0.612962	            0.009406	            0.158743	           -0.176842
            0.014000	            1.099229	            4.867582	           -0.027717	           -0.233013	            0.005581	           -0.255695	            0.543927	           -0.185225	            0.270173	            0.146801	            9.983014	          -10.711134	           -0.087700	            0.005882	           -0.617934	            0.003409	            0.231793	           -0.248699
            0.014500	            1.329193	            4.505916	            0.245304	           -0.233013	            0.005581	           -0.255695	            0.494933	           -0.323771	            0.279487	           -0.039995	            9.798691	          -10.852496	           -0.090080	            0.005840	           -0.608533	           -0.000941	            0.230580	           -0.255378
            0.015000	            0.961976	            5.227497	            0.111738	           -0.188720	            0.006050	           -0.363198	           -0.043043	           -0.233901	           -0.005000	            0.336900	            9.246762	          -10.619986	           -0.083359	            0.005836	           -0.600518	            0.005191	            0.142466	           -0.163624
            0.015500	            0.412918	            5.045356	            0.525034	           -0.172471	            0.006005	           -0.351884	           -0.021450	           -0.262089	           -0.027274	            0.292127	            8.693479	          -10.434225	           -0.078370	            0.005816	           -0.590053	            0.004543	            0.135187	           -0.162256
            0.016000	            0.459264	            5.404913	            0.755746	           -0.168260	            0.006079	           -0.368924	           -0.008003	           -0.094188	           -0.013170	            0.476950	            9.430079	          -10.243964	           -0.084432	            0.005862	           -0.609039	            0.005798	            0.114645	           -0.124540
            0.016500	            0.322158	            5.584366	            0.940284	           -0.188307	            0.006021	           -0.356421	           -0.004274	           -0.074087	           -0.012475	            0.383709	            9.247266	          -10.713862	           -0.088381	            0.005795	           -0.594279	            0.006227	            0.150077	           -0.173879
            0.017000	            0.871411	            5.946380	            0.619473	           -0.182003	            0.005981	           -0.346727	           -0.006861	           -0.046816	           -0.004877	            0.335633	            9.614557	          -10.477887	           -0.085937	            0.005851	           -0.607264	            0.007407	            0.212182	           -0.231235
